<svg width="250" height="250" viewBox="0 0 250 250" fill="none" xmlns="http://www.w3.org/2000/svg">
<rect width="250" height="250" rx="6" fill="#EEF2FF"/>
<g clip-path="url(#clip0_18542_28844)">
<path d="M156.173 19.1133H28.4835C23.3856 19.1133 19.2529 23.2038 19.2529 28.2496V110.477C19.2529 115.523 23.3856 119.613 28.4835 119.613H156.173C161.271 119.613 165.403 115.523 165.403 110.477V28.2496C165.403 23.2038 161.271 19.1133 156.173 19.1133Z" fill="black"/>
<path d="M156.175 19.1133H28.4854C23.3875 19.1133 19.2549 23.2038 19.2549 28.2496V110.477C19.2549 115.523 23.3875 119.613 28.4854 119.613H156.175C161.273 119.613 165.405 115.523 165.405 110.477V28.2496C165.405 23.2038 161.273 19.1133 156.175 19.1133Z" fill="white"/>
<path d="M19.4775 35.7812L165.071 35.7813" stroke="#CEC3FF"/>
<path d="M30.2672 30.0687C31.6104 30.0687 32.6993 28.9908 32.6993 27.6613C32.6993 26.3317 31.6104 25.2539 30.2672 25.2539C28.9239 25.2539 27.835 26.3317 27.835 27.6613C27.835 28.9908 28.9239 30.0687 30.2672 30.0687Z" fill="#CEC3FF"/>
<path d="M38.5113 30.0687C39.8546 30.0687 40.9435 28.9908 40.9435 27.6613C40.9435 26.3317 39.8546 25.2539 38.5113 25.2539C37.168 25.2539 36.0791 26.3317 36.0791 27.6613C36.0791 28.9908 37.168 30.0687 38.5113 30.0687Z" fill="#CEC3FF"/>
<path d="M46.7574 30.0687C48.1006 30.0687 49.1896 28.9908 49.1896 27.6613C49.1896 26.3317 48.1006 25.2539 46.7574 25.2539C45.4141 25.2539 44.3252 26.3317 44.3252 27.6613C44.3252 28.9908 45.4141 30.0687 46.7574 30.0687Z" fill="#CEC3FF"/>
<path d="M155.222 19.1133H29.4384C23.9981 19.1133 19.5879 23.4785 19.5879 28.8633V109.863C19.5879 115.248 23.9981 119.613 29.4384 119.613H155.222C160.662 119.613 165.072 115.248 165.072 109.863V28.8633C165.072 23.4785 160.662 19.1133 155.222 19.1133Z" stroke="#CEC3FF" stroke-linecap="round"/>
<rect x="26.9912" y="42.7031" width="130.678" height="33.4375" rx="3" fill="#CEC3FF"/>
<g opacity="0.51">
<rect x="26.9912" y="85.4062" width="130.678" height="1.56534" rx="0.78267" fill="#CEC3FF"/>
<rect x="26.9912" y="88.6484" width="130.678" height="1.56534" rx="0.78267" fill="#CEC3FF"/>
<rect x="26.9912" y="91.8906" width="76.3203" height="1.56534" rx="0.78267" fill="#CEC3FF"/>
</g>
<g opacity="0.51">
<rect x="26.9912" y="100.453" width="130.678" height="1.56534" rx="0.78267" fill="#CEC3FF"/>
<rect x="26.9912" y="103.695" width="130.678" height="1.56534" rx="0.78267" fill="#CEC3FF"/>
<rect x="26.9912" y="106.938" width="76.3203" height="1.56534" rx="0.78267" fill="#CEC3FF"/>
</g>
<path d="M113.899 68.5547H89.6299L89.6309 68.5537H75.5342L85.4531 57.4922L92.1602 64.9717L101.765 51.375L113.899 68.5547Z" fill="white"/>
<circle cx="91.9302" cy="55.4048" r="2.25635" fill="white"/>
</g>
<path d="M221.512 130.391H93.8223C88.7245 130.391 84.5918 134.481 84.5918 139.527V221.754C84.5918 226.8 88.7245 230.891 93.8223 230.891H221.512C226.61 230.891 230.742 226.8 230.742 221.754V139.527C230.742 134.481 226.61 130.391 221.512 130.391Z" fill="black"/>
<path d="M221.514 130.391H93.8243C88.7264 130.391 84.5938 134.481 84.5938 139.527V221.754C84.5938 226.8 88.7264 230.891 93.8243 230.891H221.514C226.612 230.891 230.744 226.8 230.744 221.754V139.527C230.744 134.481 226.612 130.391 221.514 130.391Z" fill="white"/>
<path d="M84.8164 147.062L230.41 147.063" stroke="#CEC3FF"/>
<path d="M95.606 141.346C96.9493 141.346 98.0382 140.268 98.0382 138.939C98.0382 137.609 96.9493 136.531 95.606 136.531C94.2628 136.531 93.1738 137.609 93.1738 138.939C93.1738 140.268 94.2628 141.346 95.606 141.346Z" fill="#CEC3FF"/>
<path d="M103.85 141.346C105.193 141.346 106.282 140.268 106.282 138.939C106.282 137.609 105.193 136.531 103.85 136.531C102.507 136.531 101.418 137.609 101.418 138.939C101.418 140.268 102.507 141.346 103.85 141.346Z" fill="#CEC3FF"/>
<path d="M112.096 141.346C113.44 141.346 114.528 140.268 114.528 138.939C114.528 137.609 113.44 136.531 112.096 136.531C110.753 136.531 109.664 137.609 109.664 138.939C109.664 140.268 110.753 141.346 112.096 141.346Z" fill="#CEC3FF"/>
<path d="M182.951 187.18H154.819L154.82 187.179H138.48L149.978 174.356L157.752 183.026L168.886 167.266L182.951 187.18Z" fill="white"/>
<circle cx="157.487" cy="171.936" r="2.61548" fill="white"/>
<path d="M220.561 130.391H94.7773C89.337 130.391 84.9268 134.756 84.9268 140.141V221.141C84.9268 226.525 89.337 230.891 94.7773 230.891H220.561C226.001 230.891 230.411 226.525 230.411 221.141V140.141C230.411 134.756 226.001 130.391 220.561 130.391Z" stroke="#CEC3FF" stroke-linecap="round"/>
<rect x="92.3301" y="154.125" width="130.678" height="46.8281" rx="3" fill="#CEC3FF"/>
<rect x="92.3301" y="206.312" width="79.1094" height="16.0156" rx="3" fill="#CEC3FF"/>
<g opacity="0.43">
<rect x="95.6064" y="210.297" width="72.2402" height="1.56534" rx="0.78267" fill="white"/>
<rect x="95.6064" y="213.539" width="72.2402" height="1.56534" rx="0.78267" fill="white"/>
<rect x="95.6064" y="216.781" width="42.1908" height="1.56534" rx="0.78267" fill="white"/>
</g>
<rect x="174.752" y="206.312" width="48.2559" height="16.0156" rx="3" fill="#CEC3FF"/>
<g opacity="0.43">
<rect x="177.885" y="210.297" width="40.5469" height="1.56534" rx="0.78267" fill="white"/>
<rect x="177.885" y="213.539" width="40.5469" height="1.56534" rx="0.78267" fill="white"/>
<rect x="177.885" y="216.781" width="23.6808" height="1.56534" rx="0.78267" fill="white"/>
</g>
<path d="M182.144 188.498H151.179L151.18 188.496H133.194L145.85 174.383L154.407 183.926L166.661 166.578L182.144 188.498Z" fill="white"/>
<circle cx="154.113" cy="171.723" r="2.87882" fill="white"/>
<path d="M159.369 122.675L159.639 122.99L159.641 122.991L161.064 124.64C161.523 123.882 161.825 123.06 161.944 122.221C162.05 121.469 162.013 120.703 161.817 119.969C161.62 119.236 161.263 118.535 160.742 117.933L154.648 110.871C154.128 110.267 153.487 109.81 152.789 109.509C151.742 109.057 150.577 108.948 149.439 109.152C148.304 109.357 147.188 109.878 146.233 110.701C144.96 111.8 144.179 113.258 143.966 114.761C143.86 115.513 143.897 116.279 144.093 117.013C144.289 117.747 144.647 118.448 145.169 119.051L151.263 126.112C151.783 126.716 152.424 127.172 153.12 127.474C154.167 127.926 155.334 128.035 156.47 127.83C156.939 127.746 157.402 127.605 157.854 127.415L156.428 125.763L156.426 125.76L156.158 125.45C155.885 125.509 155.611 125.539 155.346 125.538C154.887 125.535 154.453 125.445 154.071 125.279C153.687 125.113 153.352 124.872 153.073 124.55L146.98 117.489C146.701 117.165 146.513 116.799 146.405 116.395C146.241 115.79 146.267 115.097 146.498 114.411C146.729 113.727 147.161 113.059 147.795 112.513C148.639 111.783 149.648 111.438 150.565 111.446C151.024 111.449 151.457 111.538 151.84 111.704C152.224 111.871 152.559 112.111 152.838 112.434L158.931 119.495C159.209 119.817 159.398 120.184 159.507 120.588C159.669 121.193 159.644 121.887 159.412 122.571C159.401 122.606 159.382 122.641 159.369 122.675Z" fill="#6B4BF9"/>
<path d="M159.791 129.666L158.096 127.702C157.636 128.459 157.335 129.281 157.216 130.12C157.109 130.872 157.147 131.638 157.342 132.372C157.538 133.105 157.897 133.807 158.418 134.409L164.511 141.471C165.031 142.075 165.673 142.532 166.37 142.833C167.416 143.285 168.583 143.393 169.719 143.189C170.857 142.984 171.972 142.464 172.927 141.64C174.199 140.54 174.98 139.083 175.193 137.579C175.299 136.829 175.262 136.062 175.065 135.329C174.87 134.595 174.511 133.894 173.99 133.291L167.897 126.23C167.376 125.626 166.735 125.169 166.039 124.868C164.992 124.416 163.825 124.307 162.689 124.512C162.221 124.596 161.757 124.737 161.307 124.927L163.001 126.89C163.276 126.833 163.548 126.802 163.813 126.804C164.272 126.807 164.705 126.896 165.089 127.062C165.473 127.229 165.808 127.469 166.086 127.792L172.18 134.853C172.458 135.177 172.647 135.542 172.755 135.947C172.918 136.551 172.892 137.246 172.661 137.931C172.43 138.615 171.998 139.283 171.365 139.829C170.52 140.558 169.511 140.903 168.595 140.896C168.136 140.893 167.703 140.804 167.32 140.638C166.935 140.471 166.601 140.231 166.322 139.908L160.228 132.847C159.95 132.525 159.761 132.158 159.653 131.753C159.491 131.149 159.516 130.455 159.747 129.77C159.758 129.735 159.778 129.7 159.791 129.666Z" fill="#6B4BF9"/>
<path d="M160.266 125.265L160.138 125.117L159.389 124.249C159.389 124.249 159.389 124.249 159.388 124.249L159.246 124.083L157.188 121.699C156.805 121.255 156.133 121.205 155.689 121.588L155.608 121.658C155.164 122.042 155.115 122.713 155.498 123.158L157.557 125.543L157.698 125.706C157.698 125.707 157.698 125.707 157.699 125.708L158.449 126.577L158.577 126.725L159.468 127.758L161.033 129.572C161.417 130.016 162.088 130.065 162.532 129.682L162.613 129.613C163.057 129.229 163.107 128.557 162.723 128.113L161.157 126.298L160.266 125.265Z" fill="#6B4BF9"/>
<path d="M150.417 119.125L144.511 119.125L144.511 120.124L150.417 120.124L150.417 119.125Z" fill="#CEC3FF"/>
<path d="M148.539 116.336L142.022 116.336L142.022 119.125L148.539 119.125L148.539 116.336Z" fill="white"/>
<defs>
<clipPath id="clip0_18542_28844">
<rect width="147" height="102" fill="white" transform="translate(18.8301 18.3633)"/>
</clipPath>
</defs>
</svg>
